<svg width="current" height="current" viewBox="0 0 145 24" fill="none" xmlns="http://www.w3.org/2000/svg">
<rect width="145" height="24" fill="#F8F8F8"/>
<circle cx="12" cy="12" r="12" fill="white"/>
<path d="M13.0264 7.89634L12.8179 7.8633V2.4003H11.1824V7.8633L10.9739 7.89634C8.79684 8.24521 7.20016 10.079 7.20016 12.2285V17.9154C7.20016 18.3993 7.57415 18.823 8.06981 18.8551C8.61334 18.8901 9.06811 18.4693 9.06811 17.9474V15.7522H14.9322V17.9154C14.9322 18.3993 15.3062 18.823 15.8019 18.8551C16.3454 18.891 16.8002 18.4693 16.8002 17.9474V12.2276C16.8002 10.079 15.2025 8.24521 13.0264 7.89634Z" fill="black"/>
<path d="M14.6826 13.8547H9.31714V12.5144C9.31714 11.1256 10.472 10.0001 11.8972 10.0001H12.1016C13.5267 10.0001 14.6816 11.1256 14.6816 12.5144L14.6826 13.8547Z" fill="#FAE62C"/>
<path d="M35.328 15.936H37.28C37.7813 15.936 38.2453 15.8507 38.672 15.68C39.1093 15.4987 39.488 15.248 39.808 14.928C40.1387 14.608 40.3893 14.2347 40.56 13.808C40.7413 13.3813 40.832 12.9173 40.832 12.416C40.832 11.9147 40.7413 11.4507 40.56 11.024C40.3787 10.5867 40.128 10.208 39.808 9.888C39.488 9.568 39.1093 9.31733 38.672 9.136C38.2453 8.95467 37.7813 8.864 37.28 8.864H35.328V15.936ZM33.008 18V6.8H37.312C38.1547 6.8 38.9333 6.944 39.648 7.232C40.3627 7.50933 40.9867 7.904 41.52 8.416C42.0533 8.928 42.4693 9.52533 42.768 10.208C43.0773 10.8907 43.232 11.6267 43.232 12.416C43.232 13.216 43.0827 13.952 42.784 14.624C42.4853 15.296 42.064 15.888 41.52 16.4C40.9867 16.9013 40.3627 17.296 39.648 17.584C38.9333 17.8613 38.1547 18 37.312 18H33.008ZM44.8205 18V6.8H50.0845C50.8418 6.8 51.5032 6.928 52.0685 7.184C52.6338 7.44 53.0765 7.80267 53.3965 8.272C53.7165 8.73067 53.8765 9.264 53.8765 9.872C53.8765 10.3627 53.7485 10.816 53.4925 11.232C53.2472 11.6373 52.9112 11.968 52.4845 12.224C53.0285 12.48 53.4605 12.8267 53.7805 13.264C54.1005 13.7013 54.2605 14.1973 54.2605 14.752C54.2605 15.392 54.0952 15.9573 53.7645 16.448C53.4445 16.9387 52.9858 17.3227 52.3885 17.6C51.8018 17.8667 51.1192 18 50.3405 18H44.8205ZM47.1405 11.376H49.9405C50.4418 11.376 50.8365 11.2587 51.1245 11.024C51.4232 10.7787 51.5725 10.4533 51.5725 10.048C51.5725 9.64267 51.4232 9.32267 51.1245 9.088C50.8365 8.84267 50.4418 8.72 49.9405 8.72H47.1405V11.376ZM47.1405 16.08H50.1645C50.6978 16.08 51.1245 15.952 51.4445 15.696C51.7645 15.4293 51.9245 15.0773 51.9245 14.64C51.9245 14.192 51.7645 13.84 51.4445 13.584C51.1245 13.3173 50.6978 13.184 50.1645 13.184H47.1405V16.08ZM58.203 15.936H60.155C60.6563 15.936 61.1203 15.8507 61.547 15.68C61.9843 15.4987 62.363 15.248 62.683 14.928C63.0137 14.608 63.2643 14.2347 63.435 13.808C63.6163 13.3813 63.707 12.9173 63.707 12.416C63.707 11.9147 63.6163 11.4507 63.435 11.024C63.2537 10.5867 63.003 10.208 62.683 9.888C62.363 9.568 61.9843 9.31733 61.547 9.136C61.1203 8.95467 60.6563 8.864 60.155 8.864H58.203V15.936ZM55.883 18V6.8H60.187C61.0297 6.8 61.8083 6.944 62.523 7.232C63.2377 7.50933 63.8617 7.904 64.395 8.416C64.9283 8.928 65.3443 9.52533 65.643 10.208C65.9523 10.8907 66.107 11.6267 66.107 12.416C66.107 13.216 65.9577 13.952 65.659 14.624C65.3603 15.296 64.939 15.888 64.395 16.4C63.8617 16.9013 63.2377 17.296 62.523 17.584C61.8083 17.8613 61.0297 18 60.187 18H55.883ZM67.6955 18V6.8H70.0155V15.952H76.1435V18H67.6955ZM76.9047 18L81.5128 6.8H84.1848L88.7448 18H86.2328L85.0968 15.056H80.4728L79.3207 18H76.9047ZM81.1927 13.2H84.3928L82.7928 9.072L81.1927 13.2ZM89.6955 18V6.8H94.9595C95.7168 6.8 96.3782 6.928 96.9435 7.184C97.5088 7.44 97.9515 7.80267 98.2715 8.272C98.5915 8.73067 98.7515 9.264 98.7515 9.872C98.7515 10.3627 98.6235 10.816 98.3675 11.232C98.1222 11.6373 97.7862 11.968 97.3595 12.224C97.9035 12.48 98.3355 12.8267 98.6555 13.264C98.9755 13.7013 99.1355 14.1973 99.1355 14.752C99.1355 15.392 98.9702 15.9573 98.6395 16.448C98.3195 16.9387 97.8608 17.3227 97.2635 17.6C96.6768 17.8667 95.9942 18 95.2155 18H89.6955ZM92.0155 11.376H94.8155C95.3168 11.376 95.7115 11.2587 95.9995 11.024C96.2982 10.7787 96.4475 10.4533 96.4475 10.048C96.4475 9.64267 96.2982 9.32267 95.9995 9.088C95.7115 8.84267 95.3168 8.72 94.8155 8.72H92.0155V11.376ZM92.0155 16.08H95.0395C95.5728 16.08 95.9995 15.952 96.3195 15.696C96.6395 15.4293 96.7995 15.0773 96.7995 14.64C96.7995 14.192 96.6395 13.84 96.3195 13.584C95.9995 13.3173 95.5728 13.184 95.0395 13.184H92.0155V16.08ZM109.497 18.16C108.665 18.16 107.886 18.016 107.161 17.728C106.435 17.4293 105.801 17.0187 105.257 16.496C104.723 15.9733 104.302 15.3653 103.993 14.672C103.694 13.968 103.545 13.2107 103.545 12.4C103.545 11.5787 103.694 10.8213 103.993 10.128C104.302 9.424 104.729 8.81067 105.273 8.288C105.817 7.76533 106.446 7.36 107.161 7.072C107.886 6.77333 108.665 6.624 109.497 6.624C110.115 6.624 110.713 6.70933 111.289 6.88C111.865 7.05067 112.398 7.29067 112.889 7.6C113.39 7.90933 113.817 8.28267 114.169 8.72L112.601 10.272C112.195 9.77067 111.726 9.392 111.193 9.136C110.67 8.88 110.105 8.752 109.497 8.752C108.995 8.752 108.526 8.848 108.089 9.04C107.651 9.22133 107.273 9.47733 106.953 9.808C106.633 10.128 106.382 10.512 106.201 10.96C106.019 11.3973 105.929 11.8773 105.929 12.4C105.929 12.912 106.019 13.392 106.201 13.84C106.382 14.2773 106.638 14.6613 106.969 14.992C107.299 15.312 107.683 15.5627 108.121 15.744C108.569 15.9253 109.054 16.016 109.577 16.016C110.163 16.016 110.713 15.8933 111.225 15.648C111.737 15.4027 112.19 15.0507 112.585 14.592L114.105 16.096C113.753 16.5227 113.331 16.8907 112.841 17.2C112.35 17.5093 111.817 17.7493 111.241 17.92C110.675 18.08 110.094 18.16 109.497 18.16ZM119.147 18.16C118.315 18.16 117.563 17.968 116.891 17.584C116.219 17.2 115.685 16.6827 115.291 16.032C114.896 15.3813 114.699 14.6507 114.699 13.84C114.699 13.0293 114.891 12.2987 115.275 11.648C115.669 10.9867 116.203 10.464 116.875 10.08C117.557 9.696 118.315 9.504 119.147 9.504C119.979 9.504 120.731 9.696 121.403 10.08C122.085 10.464 122.619 10.9867 123.003 11.648C123.397 12.2987 123.595 13.0293 123.595 13.84C123.595 14.6507 123.397 15.3813 123.003 16.032C122.619 16.6827 122.091 17.2 121.419 17.584C120.747 17.968 119.989 18.16 119.147 18.16ZM119.147 16.256C119.584 16.256 119.973 16.1493 120.315 15.936C120.667 15.7227 120.944 15.4347 121.147 15.072C121.36 14.6987 121.467 14.288 121.467 13.84C121.467 13.3813 121.36 12.9707 121.147 12.608C120.944 12.2453 120.667 11.9573 120.315 11.744C119.973 11.52 119.584 11.408 119.147 11.408C118.72 11.408 118.331 11.52 117.979 11.744C117.627 11.9573 117.349 12.2453 117.147 12.608C116.944 12.9707 116.843 13.3813 116.843 13.84C116.843 14.288 116.944 14.6987 117.147 15.072C117.349 15.4347 117.627 15.7227 117.979 15.936C118.331 16.1493 118.72 16.256 119.147 16.256ZM124.942 18V9.664H127.134V10.592C127.401 10.2293 127.721 9.952 128.094 9.76C128.467 9.568 128.889 9.472 129.358 9.472C129.763 9.48267 130.067 9.54667 130.27 9.664V11.584C130.11 11.5093 129.934 11.456 129.742 11.424C129.55 11.3813 129.353 11.36 129.15 11.36C128.723 11.36 128.334 11.4667 127.982 11.68C127.63 11.8933 127.347 12.1973 127.134 12.592V18H124.942ZM131.473 21.264V9.664H133.633V10.352C134.316 9.81867 135.105 9.552 136.001 9.552C136.791 9.552 137.505 9.744 138.145 10.128C138.785 10.512 139.292 11.0293 139.665 11.68C140.049 12.32 140.241 13.04 140.241 13.84C140.241 14.64 140.049 15.3653 139.665 16.016C139.281 16.656 138.764 17.168 138.113 17.552C137.463 17.9253 136.737 18.112 135.937 18.112C135.521 18.112 135.121 18.0587 134.737 17.952C134.353 17.8347 133.996 17.6693 133.665 17.456V21.264H131.473ZM135.649 16.256C136.108 16.256 136.519 16.1493 136.881 15.936C137.255 15.7227 137.548 15.4347 137.761 15.072C137.975 14.7093 138.081 14.2987 138.081 13.84C138.081 13.3813 137.975 12.9707 137.761 12.608C137.548 12.2347 137.255 11.9467 136.881 11.744C136.519 11.5307 136.108 11.424 135.649 11.424C135.244 11.424 134.871 11.4933 134.529 11.632C134.199 11.76 133.911 11.9573 133.665 12.224V15.472C133.9 15.7173 134.188 15.9093 134.529 16.048C134.881 16.1867 135.255 16.256 135.649 16.256ZM142.391 18.16C142.039 18.16 141.735 18.032 141.479 17.776C141.223 17.52 141.095 17.216 141.095 16.864C141.095 16.5013 141.223 16.192 141.479 15.936C141.735 15.68 142.039 15.552 142.391 15.552C142.743 15.552 143.047 15.68 143.303 15.936C143.559 16.192 143.687 16.5013 143.687 16.864C143.687 17.216 143.559 17.52 143.303 17.776C143.047 18.032 142.743 18.16 142.391 18.16Z" fill="#3C3C46"/>
</svg>
