<svg width="12" height="12" viewBox="0 0 12 12" fill="none" xmlns="http://www.w3.org/2000/svg">
<path d="M10.6667 0H1.33333C0.6 0 0 0.6 0 1.33333V6C0 6.73333 0.6 7.33333 1.33333 7.33333H10.6667C11.4 7.33333 12 6.73333 12 6V1.33333C12 0.6 11.4 0 10.6667 0ZM10.6667 4H8C8 5.08 7.08 6 6 6C4.92 6 4 5.08 4 4H1.33333V1.33333H10.6667V4ZM8 8.66667H12V10.6667C12 11.4 11.4 12 10.6667 12H1.33333C0.6 12 0 11.4 0 10.6667V8.66667H4C4 9.77333 4.89333 10.6667 6 10.6667C7.10667 10.6667 8 9.77333 8 8.66667Z" fill="#3C3C46"/>
</svg>
