<svg width="14" height="14" viewBox="0 0 14 14" fill="none" xmlns="http://www.w3.org/2000/svg">
<path d="M6.99333 0.333344C3.31333 0.333344 0.32666 3.32001 0.32666 7.00001C0.32666 10.68 3.31333 13.6667 6.99333 13.6667C10.6733 13.6667 13.66 10.68 13.66 7.00001C13.66 3.32001 10.6733 0.333344 6.99333 0.333344ZM9.39999 4.56001C10.1133 4.56001 10.6867 5.13334 10.6867 5.84668C10.6867 6.56001 10.1133 7.13334 9.39999 7.13334C8.68666 7.13334 8.11333 6.56001 8.11333 5.84668C8.10666 5.13334 8.68666 4.56001 9.39999 4.56001ZM5.39999 3.50668C6.26666 3.50668 6.97333 4.21334 6.97333 5.08001C6.97333 5.94668 6.26666 6.65334 5.39999 6.65334C4.53333 6.65334 3.82666 5.94668 3.82666 5.08001C3.82666 4.20668 4.52666 3.50668 5.39999 3.50668ZM5.39999 9.59334V12.0933C3.79999 11.5933 2.53333 10.36 1.97333 8.78668C2.67333 8.04001 4.41999 7.66001 5.39999 7.66001C5.75333 7.66001 6.19999 7.71334 6.66666 7.80668C5.57333 8.38668 5.39999 9.15334 5.39999 9.59334ZM6.99333 12.3333C6.81333 12.3333 6.63999 12.3267 6.46666 12.3067V9.59334C6.46666 8.64668 8.42666 8.17334 9.39999 8.17334C10.1133 8.17334 11.3467 8.43334 11.96 8.94001C11.18 10.92 9.25333 12.3333 6.99333 12.3333Z" fill="#3C3C46"/>
</svg>
